<svg xmlns="http://www.w3.org/2000/svg" width="69.601" height="54.687" viewBox="0 0 69.601 54.687"><path d="M59.343,81.243H46.915v33.014c0,8.169-2.8,10.45-7.677,10.45a18.571,18.571,0,0,1-5.943-.942L32,133.429a29.469,29.469,0,0,0,8.53,1.258c11.193,0,18.813-5.262,18.813-20.349ZM86.448,80C74.417,80,66.8,86.836,66.8,95.871c0,7.781,5.865,12.653,14.393,15.795,6.168,2.2,8.606,4.165,8.606,7.386,0,3.535-2.818,5.814-8.148,5.814a26.947,26.947,0,0,1-12.49-3.3v0l-2.36,9.822a30.808,30.808,0,0,0,14.164,3.3c14.089,0,20.637-7.543,20.637-16.421,0-7.543-4.188-12.413-13.249-15.872-6.7-2.671-9.519-4.163-9.519-7.542,0-2.672,2.437-5.107,7.464-5.107A21.494,21.494,0,0,1,96.63,92.429L99.6,82.486A32,32,0,0,0,86.448,80Z" transform="translate(-32 -80)" fill="#474747"/></svg>