<svg xmlns="http://www.w3.org/2000/svg" width="94.444" height="50" viewBox="0 0 94.444 50"><g transform="translate(-716.309 -291.129)"><path d="M818.42,380.087l-12.181-12.143-3.8,3.8,15.978,16.072,10.962-10.925v21.7h5.387V363.718Z" transform="translate(-69.2 -57.457)" fill="#fff"/><path d="M1019.752,307.222l5.481,5.519h-16.2v10.707h-5.444V291.129h16.064l5.481,5.481h-16.1v10.612Z" transform="translate(-231.204)" fill="#fff"/><path d="M1130.19,348.7l-3.966,3.966-9.26,9.26L1113,357.956l9.26-9.26-9.26-9.26,3.966-3.985,9.26,9.26Z" transform="translate(-319.437 -35.438)" fill="#fff"/><path d="M716.309,348.7l3.966,3.966,9.26,9.26,3.966-3.966-9.26-9.26,9.26-9.26-3.966-3.985-9.26,9.26Z" transform="translate(0 -35.438)" fill="#fff"/><path d="M802.474,502.976V492.206l5.394,5.394v5.375" transform="translate(-69.47 -161.854)" fill="#fff"/></g></svg>