<svg xmlns="http://www.w3.org/2000/svg" width="101.048" height="53.145" viewBox="0 0 101.048 53.145"><path d="M50.524,90.352c27.062,0,47.871,11.4,47.871,23.92s-20.825,23.92-47.871,23.92c-27.062,0-47.871-11.4-47.871-23.92s20.825-23.92,47.871-23.92m0-2.652C22.625,87.7,0,99.589,0,114.272s22.625,26.572,50.524,26.572,50.524-11.889,50.524-26.572S78.422,87.7,50.524,87.7ZM34.451,112.141c-1.247,6.394-5.652,5.731-11.068,5.731l2.163-11.147c6,0,10.073-.647,8.9,5.416Zm-19.073,17.02h5.794l1.374-7.073c6.489,0,10.515.474,14.241-3.016,4.121-3.789,5.194-10.531,2.258-13.91-1.532-1.768-3.995-2.637-7.342-2.637H20.541ZM44.7,95.436h5.763l-1.374,7.073c4.973,0,9.584-.363,11.81,1.689,2.337,2.147,1.216,4.894-1.31,17.857H53.745c2.431-12.536,2.889-13.578,2.005-14.526-.853-.916-2.795-.726-7.484-.726L45.3,122.056H39.535L44.7,95.436Zm35.035,16.7c-1.263,6.489-5.794,5.731-11.068,5.731l2.163-11.147C76.859,106.725,80.9,106.078,79.733,112.141ZM60.66,129.161h5.81l1.374-7.073c6.821,0,10.594.395,14.241-3.016,4.121-3.789,5.194-10.531,2.258-13.91-1.532-1.768-3.995-2.637-7.342-2.637H65.839Z" transform="translate(0 -87.7)" fill="#474747"/></svg>